<svg xmlns="http://www.w3.org/2000/svg" xmlns:xlink="http://www.w3.org/1999/xlink" width="173.593" height="55.689" viewBox="0 0 173.593 55.689"><defs><linearGradient id="a" x1="0.928" y1="0.306" x2="0" y2="0.685" gradientUnits="objectBoundingBox"><stop offset="0" stop-color="#2bad8a"/><stop offset="1" stop-color="#e0b500"/></linearGradient></defs><g transform="translate(-183.753 -37.478)"><g transform="translate(5.746 4.397)"><g transform="translate(174.254 17)"><path d="M3.753,0,3.78-38.88H8.64v23.76L20.871-29.16h6.237L14.229-14.58,28.62,0H21.9L8.64-14.04V0ZM43.686.81a14.378,14.378,0,0,1-7.493-1.9,13.1,13.1,0,0,1-4.982-5.319,17.014,17.014,0,0,1-1.782-7.978,18.245,18.245,0,0,1,1.755-8.276,12.918,12.918,0,0,1,4.9-5.4,13.985,13.985,0,0,1,7.384-1.9,13.374,13.374,0,0,1,7.493,2.025,12.317,12.317,0,0,1,4.644,5.778,20.985,20.985,0,0,1,1.337,8.937h-4.86v-1.728Q52-20.331,49.9-22.99a7.506,7.506,0,0,0-6.264-2.66,8.216,8.216,0,0,0-6.777,2.862q-2.322,2.862-2.322,8.208,0,5.157,2.322,7.992A8.064,8.064,0,0,0,43.47-3.753a9.333,9.333,0,0,0,5.022-1.323A9,9,0,0,0,51.84-8.883L56.457-7.29A13.022,13.022,0,0,1,51.34-1.309,14.222,14.222,0,0,1,43.686.81ZM32.913-13.23v-3.861H54.459v3.861ZM75.789.81a11.451,11.451,0,0,1-6.912-2.039,12.608,12.608,0,0,1-4.253-5.535,20.368,20.368,0,0,1-1.444-7.844,20.416,20.416,0,0,1,1.444-7.884,12.311,12.311,0,0,1,4.266-5.481,11.678,11.678,0,0,1,6.925-2A12.026,12.026,0,0,1,82.8-27.959a12.925,12.925,0,0,1,4.5,5.495,18.959,18.959,0,0,1,1.566,7.857A18.959,18.959,0,0,1,87.291-6.75a13.113,13.113,0,0,1-4.5,5.521A11.958,11.958,0,0,1,75.789.81ZM62.37,12.96V-29.16h4.293V-7.695h.54V12.96ZM75.195-3.591a7.594,7.594,0,0,0,4.779-1.458A8.785,8.785,0,0,0,82.809-9a15.733,15.733,0,0,0,.945-5.6,15.743,15.743,0,0,0-.931-5.562,8.579,8.579,0,0,0-2.862-3.942,7.9,7.9,0,0,0-4.9-1.458,7.639,7.639,0,0,0-4.7,1.391,8.263,8.263,0,0,0-2.781,3.861,16.346,16.346,0,0,0-.918,5.71,16.626,16.626,0,0,0,.9,5.684,8.263,8.263,0,0,0,2.795,3.915A7.837,7.837,0,0,0,75.195-3.591ZM103.356.81a11.3,11.3,0,0,1-5.467-1.2,8.255,8.255,0,0,1-3.321-3.172,8.59,8.59,0,0,1-1.12-4.32,8.522,8.522,0,0,1,.877-3.983A7.785,7.785,0,0,1,96.8-14.675a12.829,12.829,0,0,1,3.807-1.769,45.492,45.492,0,0,1,4.658-.985q2.578-.419,5.224-.77t4.941-.675l-1.728,1q.081-3.888-1.553-5.751t-5.63-1.863a8.765,8.765,0,0,0-4.63,1.2,6.512,6.512,0,0,0-2.795,3.9l-4.563-1.377A10.662,10.662,0,0,1,98.6-27.783a13.291,13.291,0,0,1,7.965-2.187,15.156,15.156,0,0,1,6.818,1.418,8.384,8.384,0,0,1,4.09,4.28,9.206,9.206,0,0,1,.783,2.929,32.436,32.436,0,0,1,.162,3.308V0h-4.266V-6.993l1,.648A11.993,11.993,0,0,1,110.551-1,13.536,13.536,0,0,1,103.356.81Zm.729-4.023a10.124,10.124,0,0,0,4.5-.932A8.424,8.424,0,0,0,111.645-6.6a7.947,7.947,0,0,0,1.512-3.334,11.436,11.436,0,0,0,.445-3.01q.041-1.661.041-2.552l1.674.729q-2.349.324-4.617.621t-4.293.634a33.868,33.868,0,0,0-3.645.8,11.506,11.506,0,0,0-2.228.972,4.975,4.975,0,0,0-1.674,1.525,4.007,4.007,0,0,0-.634,2.309,4.56,4.56,0,0,0,.607,2.268,4.486,4.486,0,0,0,1.89,1.755A7.22,7.22,0,0,0,104.085-3.213Z" transform="translate(0 57.603)" fill="#2bad7b"/><g transform="translate(129.257 16.081)"><path d="M799.262,122.714h-13.43v-3.347h9.914c.023-.4.056-.708.056-1.017q0-10.553.012-21.106a1.377,1.377,0,0,0-.635-1.31Q787.467,90.64,779.8,85.286a.946.946,0,0,0-1.294-.022c-5.168,3.6-10.36,7.158-15.527,10.756a1.308,1.308,0,0,0-.505.914c-.027,7.3-.02,14.6-.016,21.9a3.6,3.6,0,0,0,.067.472h9.839V102.724h12.747l.029.107-4.207,1.056c-1.446.363-2.884.762-4.341,1.071-.658.14-.807.449-.8,1.075.024,5.188.015,10.377.016,15.566v1.063H759.161c-.02-.306-.051-.561-.051-.817q0-13.235,0-26.47a1.294,1.294,0,0,1,.623-1.224q9.3-6.4,18.556-12.86a1.209,1.209,0,0,1,1.669-.014c6.29,4.392,12.611,8.738,18.925,13.094a3.615,3.615,0,0,0,.38.2Z" transform="translate(-759.109 -80.949)" fill="url(#a)"/></g></g><path d="M-44,0h-3.4V-.343a4.254,4.254,0,0,0,.558-.086q.321-.068.321-.169a.538.538,0,0,0-.007-.079A.55.55,0,0,0-46.558-.8l-.532-1.292h-2.153q-.075.18-.165.422t-.156.431a2.248,2.248,0,0,0-.1.356,1.3,1.3,0,0,0-.015.154q0,.141.213.24a2.321,2.321,0,0,0,.71.143V0h-2.558V-.343a2.363,2.363,0,0,0,.327-.046.882.882,0,0,0,.288-.1,1.117,1.117,0,0,0,.305-.259,1.373,1.373,0,0,0,.209-.365l1.022-2.474q.512-1.239,1.132-2.733h.879q.861,2.118,1.349,3.349t.831,2.039a1.014,1.014,0,0,0,.145.24.939.939,0,0,0,.25.2,1,1,0,0,0,.286.105A2.053,2.053,0,0,0-44-.343ZM-47.27-2.522l-.905-2.259-.892,2.259Zm9.55,2.43-2.167.127-.066-.062v-.4l-.031-.009a1.871,1.871,0,0,1-.582.406,1.717,1.717,0,0,1-.74.174A1.858,1.858,0,0,1-42.77-.519a2.5,2.5,0,0,1-.576-1.705A2.2,2.2,0,0,1-42.7-3.814a2.091,2.091,0,0,1,1.558-.664,2.712,2.712,0,0,1,.677.081,2.021,2.021,0,0,1,.505.191V-5.643a.72.72,0,0,0-.066-.305A.55.55,0,0,0-40.2-6.17a.89.89,0,0,0-.341-.138,3.559,3.559,0,0,0-.411-.059v-.321l2.373-.114.066.07V-.971a.646.646,0,0,0,.055.281.4.4,0,0,0,.178.18.819.819,0,0,0,.27.07q.178.022.292.026Zm-2.241-.782V-3.357a1.949,1.949,0,0,0-.086-.224.92.92,0,0,0-.152-.233.792.792,0,0,0-.235-.163.76.76,0,0,0-.332-.07.825.825,0,0,0-.721.5,2.874,2.874,0,0,0-.281,1.4,3.664,3.664,0,0,0,.051.639,1.683,1.683,0,0,0,.178.516,1,1,0,0,0,.327.365.854.854,0,0,0,.481.132.865.865,0,0,0,.444-.1A1.32,1.32,0,0,0-39.961-.875Zm8.122-3.164a1,1,0,0,0-.385.149.883.883,0,0,0-.31.369q-.308.642-.6,1.294t-.582,1.263q-.088.185-.2.475t-.187.527h-.809q-.505-1.173-.864-1.947t-.758-1.661a.712.712,0,0,0-.288-.325,1.017,1.017,0,0,0-.4-.145v-.321h2.707v.321a1.373,1.373,0,0,0-.352.066q-.2.062-.2.158a.279.279,0,0,0,.018.079q.018.053.044.119.141.334.424.962t.6,1.323q.22-.479.42-.938t.494-1.171a.721.721,0,0,0,.046-.171q.007-.066.007-.088a.172.172,0,0,0-.077-.138.8.8,0,0,0-.182-.1,1.331,1.331,0,0,0-.211-.066q-.1-.022-.167-.031v-.321h1.815ZM-28.385,0h-2.777V-.321q.114-.009.224-.022a.781.781,0,0,0,.189-.044.364.364,0,0,0,.2-.152A.52.52,0,0,0-30.495-.8V-3.357a.513.513,0,0,0-.07-.27.582.582,0,0,0-.176-.187.933.933,0,0,0-.24-.1,1.562,1.562,0,0,0-.292-.062V-4.3l2.153-.114.066.066V-.857a.492.492,0,0,0,.066.261.4.4,0,0,0,.189.16,1.484,1.484,0,0,0,.193.07,1.326,1.326,0,0,0,.22.044Zm-.642-5.994a.743.743,0,0,1-.257.569.872.872,0,0,1-.609.235.877.877,0,0,1-.613-.235.743.743,0,0,1-.257-.569.75.75,0,0,1,.257-.571.873.873,0,0,1,.613-.237.865.865,0,0,1,.611.237A.753.753,0,0,1-29.027-5.994Zm4.14,6.135a3.023,3.023,0,0,1-1.079-.178,2.124,2.124,0,0,1-.771-.486,1.988,1.988,0,0,1-.453-.738,2.785,2.785,0,0,1-.149-.927,2.131,2.131,0,0,1,.182-.87,2.368,2.368,0,0,1,.494-.725,2.345,2.345,0,0,1,.8-.512,2.8,2.8,0,0,1,1.052-.191,2.326,2.326,0,0,1,1.279.305.939.939,0,0,1,.47.824.752.752,0,0,1-.167.51.729.729,0,0,1-.576.193.926.926,0,0,1-.552-.158.486.486,0,0,1-.222-.413,1.34,1.34,0,0,1,.07-.426,1.793,1.793,0,0,0,.083-.321.335.335,0,0,0-.123-.121.5.5,0,0,0-.233-.042.717.717,0,0,0-.36.092.888.888,0,0,0-.3.325,1.9,1.9,0,0,0-.218.589,4.186,4.186,0,0,0-.081.888A2.019,2.019,0,0,0-25.377-.98,1.079,1.079,0,0,0-24.5-.5a1.257,1.257,0,0,0,.776-.218,1.957,1.957,0,0,0,.512-.617l.33.229a2.5,2.5,0,0,1-.325.49,2.073,2.073,0,0,1-.453.393,2.364,2.364,0,0,1-.562.272A2.161,2.161,0,0,1-24.887.141Zm7.581-1.191a2.673,2.673,0,0,1-.371.472,2.254,2.254,0,0,1-.494.38,2.711,2.711,0,0,1-.6.253,2.534,2.534,0,0,1-.692.086,3.082,3.082,0,0,1-1.123-.185,2.2,2.2,0,0,1-.78-.5,1.987,1.987,0,0,1-.459-.736,2.716,2.716,0,0,1-.152-.921,2.287,2.287,0,0,1,.165-.859,2.3,2.3,0,0,1,.468-.732,2.241,2.241,0,0,1,.754-.505,2.576,2.576,0,0,1,1.017-.193,2.9,2.9,0,0,1,1.011.149,1.789,1.789,0,0,1,.655.413,1.5,1.5,0,0,1,.365.591,2.23,2.23,0,0,1,.114.714v.286h-2.971a2.287,2.287,0,0,0,.347,1.371,1.28,1.28,0,0,0,1.1.47A1.281,1.281,0,0,0-18.2-.719a2.119,2.119,0,0,0,.563-.573Zm-1.679-1.67q0-.264-.026-.541a1.8,1.8,0,0,0-.092-.453.7.7,0,0,0-.2-.312.5.5,0,0,0-.327-.105.609.609,0,0,0-.541.343,2.33,2.33,0,0,0-.22,1.085ZM-8.406-.092a3.32,3.32,0,0,1-.457.154,2.158,2.158,0,0,1-.558.07,1.532,1.532,0,0,1-.8-.16.8.8,0,0,1-.347-.459h-.026a2.882,2.882,0,0,1-.288.255,1.652,1.652,0,0,1-.3.18,2.11,2.11,0,0,1-.4.143,2.4,2.4,0,0,1-.534.046,1.313,1.313,0,0,1-.87-.3.988.988,0,0,1-.36-.8,1.322,1.322,0,0,1,.079-.486,1.1,1.1,0,0,1,.224-.354,1.165,1.165,0,0,1,.305-.233,3.4,3.4,0,0,1,.38-.171q.4-.145.949-.3a5.362,5.362,0,0,0,.809-.279v-.422q0-.11-.018-.29a.938.938,0,0,0-.075-.3.58.58,0,0,0-.193-.237.573.573,0,0,0-.347-.1.83.83,0,0,0-.323.055,1.08,1.08,0,0,0-.209.112,1.72,1.72,0,0,0,.075.268,1.073,1.073,0,0,1,.062.347.585.585,0,0,1-.04.187.416.416,0,0,1-.114.178A.759.759,0,0,1-12-2.852a1.138,1.138,0,0,1-.385.048.786.786,0,0,1-.558-.178.608.608,0,0,1-.189-.464.61.61,0,0,1,.2-.442,1.6,1.6,0,0,1,.477-.323,2.735,2.735,0,0,1,.637-.2,3.4,3.4,0,0,1,.668-.073,5.586,5.586,0,0,1,.782.051,1.848,1.848,0,0,1,.642.209,1.114,1.114,0,0,1,.433.446,1.58,1.58,0,0,1,.16.762q0,.5-.02,1.178t-.02.9a.684.684,0,0,0,.059.312.378.378,0,0,0,.182.171A.649.649,0,0,0-8.7-.42q.16.007.292.007Zm-2.184-2.29q-.246.083-.488.191a1.947,1.947,0,0,0-.4.226.851.851,0,0,0-.255.314,1.026,1.026,0,0,0-.092.45.675.675,0,0,0,.156.5.526.526,0,0,0,.385.154.731.731,0,0,0,.4-.1,1.145,1.145,0,0,0,.275-.244ZM-1.681,0H-4.327V-.321l.2-.022a.555.555,0,0,0,.18-.044.28.28,0,0,0,.132-.141A.723.723,0,0,0-3.773-.8V-2.856a1.142,1.142,0,0,0-.165-.675.563.563,0,0,0-.486-.226.99.99,0,0,0-.327.053,1.22,1.22,0,0,0-.3.154,1.011,1.011,0,0,0-.2.18q-.077.092-.13.163v2.36a.658.658,0,0,0,.044.257.307.307,0,0,0,.145.156.842.842,0,0,0,.176.07,1.371,1.371,0,0,0,.207.044V0H-7.482V-.321q.11-.009.222-.024a1.074,1.074,0,0,0,.191-.042.323.323,0,0,0,.193-.149A.57.57,0,0,0-6.823-.8V-3.357a.564.564,0,0,0-.07-.268.628.628,0,0,0-.185-.215.726.726,0,0,0-.2-.088,1.409,1.409,0,0,0-.266-.048V-4.3l2.1-.114.066.066v.637h.018l.3-.264a2.879,2.879,0,0,1,.325-.25,1.579,1.579,0,0,1,.426-.18,2.055,2.055,0,0,1,.563-.075,1.357,1.357,0,0,1,1.074.406,1.573,1.573,0,0,1,.358,1.079V-.839A.585.585,0,0,0-2.27-.58a.341.341,0,0,0,.18.154,1.531,1.531,0,0,0,.174.062,1.269,1.269,0,0,0,.235.044ZM4.994-.092,2.828.035,2.762-.026v-.4L2.731-.439a1.871,1.871,0,0,1-.582.406,1.717,1.717,0,0,1-.74.174A1.858,1.858,0,0,1-.055-.519,2.5,2.5,0,0,1-.631-2.224,2.2,2.2,0,0,1,.013-3.814a2.091,2.091,0,0,1,1.558-.664,2.712,2.712,0,0,1,.677.081,2.021,2.021,0,0,1,.505.191V-5.643a.72.72,0,0,0-.066-.305.55.55,0,0,0-.176-.222.89.89,0,0,0-.341-.138,3.559,3.559,0,0,0-.411-.059v-.321L4.133-6.8l.066.07V-.971a.646.646,0,0,0,.055.281.4.4,0,0,0,.178.18.819.819,0,0,0,.27.07q.178.022.292.026ZM2.753-.875V-3.357a1.949,1.949,0,0,0-.086-.224.92.92,0,0,0-.152-.233.792.792,0,0,0-.235-.163.76.76,0,0,0-.332-.07.825.825,0,0,0-.721.5,2.874,2.874,0,0,0-.281,1.4A3.664,3.664,0,0,0,1-1.51a1.683,1.683,0,0,0,.178.516A1,1,0,0,0,1.5-.628.854.854,0,0,0,1.984-.5a.865.865,0,0,0,.444-.1A1.32,1.32,0,0,0,2.753-.875ZM11.4.167A3.881,3.881,0,0,1,10.333.026,3.858,3.858,0,0,1,9.5-.308L9.192,0H8.819L8.762-2.254h.378a5.85,5.85,0,0,0,.325.677,3.3,3.3,0,0,0,.457.637,2.361,2.361,0,0,0,.6.479,1.57,1.57,0,0,0,.776.185,1.309,1.309,0,0,0,.916-.292.956.956,0,0,0,.319-.736.8.8,0,0,0-.27-.613,2.249,2.249,0,0,0-.837-.428l-.679-.22q-.31-.1-.582-.207a1.926,1.926,0,0,1-.934-.716,1.858,1.858,0,0,1-.305-1.042,1.627,1.627,0,0,1,.158-.7,1.864,1.864,0,0,1,.461-.6,2.269,2.269,0,0,1,.743-.409,2.964,2.964,0,0,1,.984-.158,3.21,3.21,0,0,1,.971.143,3.913,3.913,0,0,1,.712.288l.268-.264H13.6l.035,2.127h-.378q-.132-.343-.31-.7a3.049,3.049,0,0,0-.376-.6,1.707,1.707,0,0,0-.5-.406,1.369,1.369,0,0,0-.659-.152,1.123,1.123,0,0,0-.776.268.853.853,0,0,0-.3.664.787.787,0,0,0,.261.611A2.265,2.265,0,0,0,11.42-4q.325.11.664.22t.6.211a2.166,2.166,0,0,1,.969.679,1.714,1.714,0,0,1,.332,1.074,1.729,1.729,0,0,1-.189.782,1.815,1.815,0,0,1-.51.628,2.59,2.59,0,0,1-.813.426A3.5,3.5,0,0,1,11.4.167ZM19.885-1.05a2.673,2.673,0,0,1-.371.472,2.254,2.254,0,0,1-.494.38,2.711,2.711,0,0,1-.6.253,2.534,2.534,0,0,1-.692.086,3.082,3.082,0,0,1-1.123-.185,2.2,2.2,0,0,1-.78-.5,1.987,1.987,0,0,1-.459-.736,2.716,2.716,0,0,1-.152-.921,2.287,2.287,0,0,1,.165-.859,2.3,2.3,0,0,1,.468-.732,2.241,2.241,0,0,1,.754-.505,2.576,2.576,0,0,1,1.017-.193,2.9,2.9,0,0,1,1.011.149,1.789,1.789,0,0,1,.655.413,1.5,1.5,0,0,1,.365.591,2.23,2.23,0,0,1,.114.714v.286H16.8a2.287,2.287,0,0,0,.347,1.371,1.28,1.28,0,0,0,1.1.47,1.281,1.281,0,0,0,.743-.226,2.119,2.119,0,0,0,.563-.573ZM18.206-2.72q0-.264-.026-.541a1.8,1.8,0,0,0-.092-.453.7.7,0,0,0-.2-.312.5.5,0,0,0-.327-.105.609.609,0,0,0-.541.343A2.33,2.33,0,0,0,16.8-2.7Zm7.063-.835a.9.9,0,0,1-.207.587.669.669,0,0,1-.545.253.893.893,0,0,1-.543-.163.556.556,0,0,1-.222-.479,1.013,1.013,0,0,1,.022-.24q.022-.086.04-.16a.926.926,0,0,0-.426.141,1.4,1.4,0,0,0-.4.352V-.853A.59.59,0,0,0,23.04-.6a.341.341,0,0,0,.163.158,1.137,1.137,0,0,0,.314.081q.218.033.314.037V0h-2.94V-.321q.11-.009.222-.024A1.074,1.074,0,0,0,21.3-.387.323.323,0,0,0,21.5-.536.57.57,0,0,0,21.551-.8V-3.357a.543.543,0,0,0-.075-.283.645.645,0,0,0-.18-.2.726.726,0,0,0-.2-.088,1.409,1.409,0,0,0-.266-.048V-4.3l2.1-.114.066.066v.637h.018a2.59,2.59,0,0,1,.644-.552,1.382,1.382,0,0,1,.71-.2.88.88,0,0,1,.657.253A.892.892,0,0,1,25.268-3.555Zm5.9-.483a1,1,0,0,0-.385.149.883.883,0,0,0-.31.369q-.308.642-.6,1.294T29.286-.962q-.088.185-.2.475T28.9.04H28.09q-.505-1.173-.864-1.947t-.758-1.661a.712.712,0,0,0-.288-.325,1.017,1.017,0,0,0-.4-.145v-.321H28.49v.321a1.373,1.373,0,0,0-.352.066q-.2.062-.2.158a.279.279,0,0,0,.018.079q.018.053.044.119.141.334.424.962t.6,1.323q.22-.479.42-.938t.494-1.171a.721.721,0,0,0,.046-.171q.007-.066.007-.088a.172.172,0,0,0-.077-.138.8.8,0,0,0-.182-.1,1.331,1.331,0,0,0-.211-.066q-.1-.022-.167-.031v-.321h1.815ZM34.621,0H31.844V-.321q.114-.009.224-.022a.781.781,0,0,0,.189-.044.364.364,0,0,0,.2-.152A.52.52,0,0,0,32.512-.8V-3.357a.513.513,0,0,0-.07-.27.582.582,0,0,0-.176-.187.933.933,0,0,0-.24-.1,1.562,1.562,0,0,0-.292-.062V-4.3l2.153-.114.066.066V-.857a.492.492,0,0,0,.066.261.4.4,0,0,0,.189.16,1.484,1.484,0,0,0,.193.07,1.326,1.326,0,0,0,.22.044Zm-.642-5.994a.743.743,0,0,1-.257.569.872.872,0,0,1-.609.235.877.877,0,0,1-.613-.235.743.743,0,0,1-.257-.569.75.75,0,0,1,.257-.571.873.873,0,0,1,.613-.237.865.865,0,0,1,.611.237A.753.753,0,0,1,33.979-5.994ZM38.12.141a3.023,3.023,0,0,1-1.079-.178,2.124,2.124,0,0,1-.771-.486,1.988,1.988,0,0,1-.453-.738,2.785,2.785,0,0,1-.149-.927,2.131,2.131,0,0,1,.182-.87,2.368,2.368,0,0,1,.494-.725,2.345,2.345,0,0,1,.8-.512,2.8,2.8,0,0,1,1.052-.191,2.326,2.326,0,0,1,1.279.305.939.939,0,0,1,.47.824.752.752,0,0,1-.167.51.729.729,0,0,1-.576.193.926.926,0,0,1-.552-.158.486.486,0,0,1-.222-.413,1.34,1.34,0,0,1,.07-.426,1.793,1.793,0,0,0,.083-.321.335.335,0,0,0-.123-.121.5.5,0,0,0-.233-.042.717.717,0,0,0-.36.092.888.888,0,0,0-.3.325,1.9,1.9,0,0,0-.218.589,4.186,4.186,0,0,0-.081.888A2.019,2.019,0,0,0,37.63-.98a1.079,1.079,0,0,0,.877.479,1.257,1.257,0,0,0,.776-.218,1.957,1.957,0,0,0,.512-.617l.33.229a2.5,2.5,0,0,1-.325.49,2.073,2.073,0,0,1-.453.393,2.364,2.364,0,0,1-.562.272A2.161,2.161,0,0,1,38.12.141ZM45.7-1.05a2.673,2.673,0,0,1-.371.472,2.254,2.254,0,0,1-.494.38,2.711,2.711,0,0,1-.6.253,2.534,2.534,0,0,1-.692.086,3.082,3.082,0,0,1-1.123-.185,2.2,2.2,0,0,1-.78-.5,1.987,1.987,0,0,1-.459-.736,2.716,2.716,0,0,1-.152-.921,2.287,2.287,0,0,1,.165-.859,2.3,2.3,0,0,1,.468-.732,2.241,2.241,0,0,1,.754-.505,2.576,2.576,0,0,1,1.017-.193,2.9,2.9,0,0,1,1.011.149,1.789,1.789,0,0,1,.655.413,1.5,1.5,0,0,1,.365.591,2.23,2.23,0,0,1,.114.714v.286H42.611a2.287,2.287,0,0,0,.347,1.371,1.28,1.28,0,0,0,1.1.47A1.281,1.281,0,0,0,44.8-.719a2.119,2.119,0,0,0,.563-.573ZM44.022-2.72q0-.264-.026-.541a1.8,1.8,0,0,0-.092-.453.7.7,0,0,0-.2-.312.5.5,0,0,0-.327-.105.609.609,0,0,0-.541.343,2.33,2.33,0,0,0-.22,1.085Zm4.72,2.87A2.812,2.812,0,0,1,47.91.024a2.727,2.727,0,0,1-.631-.266l-.132.3H46.8l-.057-1.639h.321a2.179,2.179,0,0,0,.22.446,2.459,2.459,0,0,0,.352.446,1.991,1.991,0,0,0,.472.334,1.23,1.23,0,0,0,.569.136.945.945,0,0,0,.6-.156.578.578,0,0,0,.2-.481.462.462,0,0,0-.088-.29.75.75,0,0,0-.242-.2,2.232,2.232,0,0,0-.376-.149l-.5-.149a4.839,4.839,0,0,1-.512-.178A1.754,1.754,0,0,1,47.31-2.1a1.3,1.3,0,0,1-.316-.413,1.294,1.294,0,0,1-.119-.576,1.187,1.187,0,0,1,.521-1,2.251,2.251,0,0,1,1.365-.382A3.13,3.13,0,0,1,49.5-4.4a3.707,3.707,0,0,1,.565.178l.092-.259h.334l.07,1.5h-.312a1.816,1.816,0,0,0-.527-.789,1.191,1.191,0,0,0-.8-.332.888.888,0,0,0-.532.141.456.456,0,0,0-.193.391.507.507,0,0,0,.283.483,3.8,3.8,0,0,0,.793.281,2.588,2.588,0,0,1,1.151.552,1.179,1.179,0,0,1,.365.89,1.284,1.284,0,0,1-.565,1.116A2.517,2.517,0,0,1,48.742.149Z" transform="translate(300.818 88.603)" fill="#2bad8a"/></g></g></svg>