<svg xmlns="http://www.w3.org/2000/svg" xmlns:xlink="http://www.w3.org/1999/xlink" width="40.153" height="41.765" viewBox="0 0 40.153 41.765"><defs><linearGradient id="a" x1="0.928" y1="0.306" x2="0" y2="0.685" gradientUnits="objectBoundingBox"><stop offset="0" stop-color="#2bad8a"/><stop offset="1" stop-color="#e0b500"/></linearGradient></defs><path d="M799.262,122.714h-13.43v-3.347h9.914c.023-.4.056-.708.056-1.017q0-10.553.012-21.106a1.377,1.377,0,0,0-.635-1.31Q787.467,90.64,779.8,85.286a.946.946,0,0,0-1.294-.022c-5.168,3.6-10.36,7.158-15.527,10.756a1.308,1.308,0,0,0-.505.914c-.027,7.3-.02,14.6-.016,21.9a3.6,3.6,0,0,0,.067.472h9.839V102.724h12.747l.029.107-4.207,1.056c-1.446.363-2.884.762-4.341,1.071-.658.14-.807.449-.8,1.075.024,5.188.015,10.377.016,15.566v1.063H759.161c-.02-.306-.051-.561-.051-.817q0-13.235,0-26.47a1.294,1.294,0,0,1,.623-1.224q9.3-6.4,18.556-12.86a1.209,1.209,0,0,1,1.669-.014c6.29,4.392,12.611,8.738,18.925,13.094a3.615,3.615,0,0,0,.38.2Z" transform="translate(-759.109 -80.949)" fill="url(#a)"/></svg>