<svg xmlns="http://www.w3.org/2000/svg" width="28" height="27" viewBox="0 0 28 27"><path d="M12.2,3.728a2,2,0,0,1,3.6,0l.277.572a2,2,0,0,0,2.622.954l.6-.268a2,2,0,0,1,2.753,2.341l-.127.476a2,2,0,0,0,1.414,2.449l.5.134a2,2,0,0,1,.622,3.575l-.379.263a2,2,0,0,0-.493,2.8l.261.369a2,2,0,0,1-1.793,3.148l-.591-.047a2,2,0,0,0-2.151,1.8l-.053.563a2,2,0,0,1-3.382,1.248l-.482-.467a2,2,0,0,0-2.783,0l-.482.467a2,2,0,0,1-3.382-1.248l-.053-.563a2,2,0,0,0-2.151-1.8l-.591.047A2,2,0,0,1,4.155,17.39l.261-.369a2,2,0,0,0-.493-2.8l-.379-.263a2,2,0,0,1,.622-3.575l.5-.134A2,2,0,0,0,6.079,7.8l-.127-.476A2,2,0,0,1,8.7,4.986l.6.268A2,2,0,0,0,11.923,4.3Z" fill="#8d8d8d"/></svg>